<svg width="32" height="32" viewBox="0 0 32 32" fill="none" xmlns="http://www.w3.org/2000/svg">
<path d="M28.956 1H3.32967C2.04303 1 1 2.04303 1 3.32967V14.978C1 16.2647 2.04303 17.3077 3.32967 17.3077H28.956C30.2427 17.3077 31.2857 16.2647 31.2857 14.978V3.32967C31.2857 2.04303 30.2427 1 28.956 1Z" stroke="#A5A36C" stroke-width="1.2" stroke-linecap="round" stroke-linejoin="round"/>
<path d="M25.4613 17.3074V12.648C25.4613 12.0302 25.2159 11.4376 24.779 11.0007C24.3421 10.5638 23.7495 10.3184 23.1317 10.3184H9.15365C8.53578 10.3184 7.94322 10.5638 7.50632 11.0007C7.06942 11.4376 6.82397 12.0302 6.82397 12.648V17.3074" stroke="#A5A36C" stroke-width="1.2" stroke-linecap="round" stroke-linejoin="round"/>
<path d="M6.82426 24.297L5.65942 31.286" stroke="#A5A36C" stroke-width="1.2" stroke-linecap="round" stroke-linejoin="round"/>
<path d="M16.1431 24.297V31.286" stroke="#A5A36C" stroke-width="1.2" stroke-linecap="round" stroke-linejoin="round"/>
<path d="M25.4614 24.297L26.6263 31.286" stroke="#A5A36C" stroke-width="1.2" stroke-linecap="round" stroke-linejoin="round"/>
</svg>
