<svg width="16" height="16" viewBox="0 0 16 16" fill="none" xmlns="http://www.w3.org/2000/svg">
<path d="M14.1871 0.857422H2.09915C1.49224 0.857422 1.00024 1.34942 1.00024 1.95633V7.45086C1.00024 8.05777 1.49224 8.54977 2.09915 8.54977H14.1871C14.794 8.54977 15.286 8.05777 15.286 7.45086V1.95633C15.286 1.34942 14.794 0.857422 14.1871 0.857422Z" stroke="#787F3D" stroke-linecap="round" stroke-linejoin="round"/>
<path d="M12.5386 8.54965V6.35184C12.5386 6.06039 12.4228 5.78088 12.2167 5.57479C12.0106 5.36871 11.7311 5.25293 11.4397 5.25293H4.84622C4.55477 5.25293 4.27526 5.36871 4.06918 5.57479C3.86309 5.78088 3.74731 6.06039 3.74731 6.35184V8.54965" stroke="#787F3D" stroke-linecap="round" stroke-linejoin="round"/>
<path d="M3.74745 11.8467L3.198 15.1434" stroke="#787F3D" stroke-linecap="round" stroke-linejoin="round"/>
<path d="M8.14331 11.8467V15.1434" stroke="#787F3D" stroke-linecap="round" stroke-linejoin="round"/>
<path d="M12.5388 11.8467L13.0883 15.1434" stroke="#787F3D" stroke-linecap="round" stroke-linejoin="round"/>
</svg>
