<svg width="32" height="29" viewBox="0 0 32 29" fill="none" xmlns="http://www.w3.org/2000/svg">
<path d="M22.9231 9.81159V14.2377C22.9231 14.8246 23.1662 15.3875 23.599 15.8025C24.0318 16.2175 24.6187 16.4507 25.2308 16.4507H26.3846C27.6087 16.4507 28.7826 15.9844 29.6482 15.1543C30.5137 14.3243 31 13.1985 31 12.0246V5.38553C31 4.7986 30.7569 4.23571 30.3241 3.82068C29.8913 3.40566 29.3043 3.1725 28.6923 3.1725H25.2308C24.5005 3.17183 23.7807 3.00497 23.1308 2.68564C20.9275 1.58297 18.485 0.991721 16 0.959473C13.4993 0.984787 11.0402 1.57623 8.82308 2.68564C8.18501 2.9931 7.48319 3.15947 6.76923 3.1725H3.30769C2.69565 3.1725 2.10868 3.40566 1.67591 3.82068C1.24313 4.23571 1 4.7986 1 5.38553V12.0246C1 13.1985 1.48626 14.3243 2.35181 15.1543C3.21737 15.9844 4.39131 16.4507 5.61538 16.4507H6.76923C7.38127 16.4507 7.96824 16.2175 8.40102 15.8025C8.83379 15.3875 9.07692 14.8246 9.07692 14.2377V9.81159" stroke="#A5A36C" stroke-width="1.2" stroke-linecap="round" stroke-linejoin="round"/>
<path d="M26.3845 16.4507L25.6691 19.9253C25.2291 22.0746 24.0242 24.0106 22.2605 25.4022C20.4968 26.7938 18.2838 27.5547 15.9999 27.5547C13.7159 27.5547 11.5029 26.7938 9.73924 25.4022C7.97553 24.0106 6.77065 22.0746 6.33062 19.9253L5.61523 16.4507" stroke="#A5A36C" stroke-width="1.2" stroke-linecap="round" stroke-linejoin="round"/>
<path d="M14.8462 20.8765H17.1539" stroke="#A5A36C" stroke-width="1.2" stroke-linecap="round" stroke-linejoin="round"/>
</svg>
