<svg width="35" height="27" viewBox="0 0 35 27" fill="none" xmlns="http://www.w3.org/2000/svg">
<path d="M34.2857 8.32588C34.2857 7.67465 34.0159 7.05009 33.5358 6.5896C33.0556 6.12911 32.4043 5.87041 31.7253 5.87041H26.6044L22.7637 0.959473H12.522L8.68132 5.87041H3.56044C2.88137 5.87041 2.23011 6.12911 1.74994 6.5896C1.26976 7.05009 1 7.67465 1 8.32588V23.0587C1 23.7099 1.26976 24.3345 1.74994 24.795C2.23011 25.2555 2.88137 25.5142 3.56044 25.5142H31.7253C32.4043 25.5142 33.0556 25.2555 33.5358 24.795C34.0159 24.3345 34.2857 23.7099 34.2857 23.0587V8.32588Z" stroke="#A5A36C" stroke-width="1.2" stroke-linecap="round" stroke-linejoin="round"/>
<path d="M17.6428 19.9888C20.8245 19.9888 23.4038 17.5153 23.4038 14.4641C23.4038 11.4129 20.8245 8.93945 17.6428 8.93945C14.4611 8.93945 11.8818 11.4129 11.8818 14.4641C11.8818 17.5153 14.4611 19.9888 17.6428 19.9888Z" stroke="#A5A36C" stroke-width="1.2" stroke-linecap="round" stroke-linejoin="round"/>
</svg>
