<svg width="16" height="17" viewBox="0 0 16 17" fill="none" xmlns="http://www.w3.org/2000/svg">
<path d="M4.58871 5.60077C5.85918 5.60077 6.8891 4.57085 6.8891 3.30038C6.8891 2.02992 5.85918 1 4.58871 1C3.31825 1 2.28833 2.02992 2.28833 3.30038C2.28833 4.57085 3.31825 5.60077 4.58871 5.60077Z" stroke="#787F3D" stroke-linecap="round" stroke-linejoin="round"/>
<path d="M8.61458 9.62626C8.61458 8.55858 8.19044 7.53464 7.43548 6.77968C6.68052 6.02472 5.65658 5.60059 4.5889 5.60059C3.52123 5.60059 2.49728 6.02472 1.74232 6.77968C0.987365 7.53464 0.563232 8.55858 0.563232 9.62626V11.3515H2.28852L2.86362 15.9523H6.31419L6.88929 11.3515H8.61458V9.62626Z" stroke="#787F3D" stroke-linecap="round" stroke-linejoin="round"/>
<path d="M12.5371 9.3164C13.3515 9.3164 14.0117 8.6562 14.0117 7.8418C14.0117 7.02739 13.3515 6.36719 12.5371 6.36719C11.7227 6.36719 11.0625 7.02739 11.0625 7.8418C11.0625 8.6562 11.7227 9.3164 12.5371 9.3164Z" stroke="#787F3D" stroke-width="0.9" stroke-linecap="round" stroke-linejoin="round"/>
<path d="M15.1174 11.897C15.1174 11.2126 14.8455 10.5562 14.3616 10.0722C13.8776 9.58829 13.2213 9.31641 12.5369 9.31641C11.8525 9.31641 11.1961 9.58829 10.7121 10.0722C10.2282 10.5562 9.9563 11.2126 9.9563 11.897V13.0029H11.0623L11.4309 15.9521H13.6428L14.0115 13.0029H15.1174V11.897Z" stroke="#787F3D" stroke-width="0.9" stroke-linecap="round" stroke-linejoin="round"/>
</svg>
