<svg width="30" height="29" viewBox="0 0 30 29" fill="none" xmlns="http://www.w3.org/2000/svg">
<path d="M6.38461 27.8525C9.35845 27.8525 11.7692 25.5406 11.7692 22.6887C11.7692 19.8368 9.35845 17.5249 6.38461 17.5249C3.41077 17.5249 1 19.8368 1 22.6887C1 25.5406 3.41077 27.8525 6.38461 27.8525Z" stroke="#A5A36C" stroke-width="1.2" stroke-linecap="round" stroke-linejoin="round"/>
<path d="M11.7692 6.16432V3.06593C11.7692 2.5181 11.5423 1.99271 11.1383 1.60534C10.7344 1.21797 10.1866 1.00034 9.61535 1.00034H7.07381C6.56689 0.9915 6.07295 1.15445 5.67897 1.46049C5.28499 1.76654 5.01622 2.19607 4.91997 2.67347L1.10767 21.6562" stroke="#A5A36C" stroke-width="1.2" stroke-linecap="round" stroke-linejoin="round"/>
<path d="M9.61548 11.3281H20.3847" stroke="#A5A36C" stroke-width="1.2" stroke-linecap="round" stroke-linejoin="round"/>
<path d="M11.7693 16.4922V22.689" stroke="#A5A36C" stroke-width="1.2" stroke-linecap="round" stroke-linejoin="round"/>
<path d="M23.6153 27.8525C26.5892 27.8525 28.9999 25.5406 28.9999 22.6887C28.9999 19.8368 26.5892 17.5249 23.6153 17.5249C20.6415 17.5249 18.2307 19.8368 18.2307 22.6887C18.2307 25.5406 20.6415 27.8525 23.6153 27.8525Z" stroke="#A5A36C" stroke-width="1.2" stroke-linecap="round" stroke-linejoin="round"/>
<path d="M18.2307 6.16432V3.06593C18.2307 2.5181 18.4576 1.99271 18.8616 1.60534C19.2655 1.21797 19.8133 1.00034 20.3846 1.00034H22.9261C23.433 0.9915 23.927 1.15445 24.3209 1.46049C24.7149 1.76654 24.9837 2.19607 25.0799 2.67347L28.9353 21.6562" stroke="#A5A36C" stroke-width="1.2" stroke-linecap="round" stroke-linejoin="round"/>
<path d="M18.2307 16.4922V22.689" stroke="#A5A36C" stroke-width="1.2" stroke-linecap="round" stroke-linejoin="round"/>
</svg>
