<svg width="11" height="19" viewBox="0 0 11 19" fill="none" xmlns="http://www.w3.org/2000/svg">
<path d="M7.98268 0.754883C6.80717 0.754883 5.67979 1.22186 4.84858 2.05307C4.01736 2.88429 3.55039 4.01166 3.55039 5.18717V7.65488H1.17852C1.05943 7.65488 0.962891 7.75142 0.962891 7.87051V11.1288C0.962891 11.2479 1.05943 11.3445 1.17852 11.3445H3.55039V18.0288C3.55039 18.1479 3.64693 18.2445 3.76602 18.2445H7.02435C7.14344 18.2445 7.23997 18.1479 7.23997 18.0288V11.3445H9.63286C9.7318 11.3445 9.81805 11.2771 9.84205 11.1811L10.6566 7.9228C10.6907 7.78671 10.5877 7.65488 10.4474 7.65488H7.23997V5.18717C7.23997 4.9902 7.31822 4.80128 7.45751 4.662C7.59679 4.52272 7.7857 4.44447 7.98268 4.44447H10.4743C10.5934 4.44447 10.69 4.34793 10.69 4.22884V0.970508C10.69 0.851422 10.5934 0.754883 10.4743 0.754883H7.98268Z" fill="#787F3D"/>
</svg>
