<svg width="11" height="19" viewBox="0 0 11 19" fill="none" xmlns="http://www.w3.org/2000/svg">
<path d="M7.98317 0.754883C6.80765 0.754883 5.68028 1.22186 4.84907 2.05307C4.01785 2.88429 3.55088 4.01166 3.55088 5.18717V7.65488H1.179C1.05992 7.65488 0.963379 7.75142 0.963379 7.87051V11.1288C0.963379 11.2479 1.05992 11.3445 1.179 11.3445H3.55088V18.0288C3.55088 18.1479 3.64742 18.2445 3.7665 18.2445H7.02484C7.14392 18.2445 7.24046 18.1479 7.24046 18.0288V11.3445H9.63335C9.73229 11.3445 9.81854 11.2771 9.84253 11.1811L10.6571 7.9228C10.6911 7.78671 10.5882 7.65488 10.4479 7.65488H7.24046V5.18717C7.24046 4.9902 7.31871 4.80128 7.458 4.662C7.59728 4.52272 7.78619 4.44447 7.98317 4.44447H10.4748C10.5939 4.44447 10.6905 4.34793 10.6905 4.22884V0.970508C10.6905 0.851422 10.5939 0.754883 10.4748 0.754883H7.98317Z" fill="#787F3D"/>
</svg>
