<svg width="32" height="28" viewBox="0 0 32 28" fill="none" xmlns="http://www.w3.org/2000/svg">
<path d="M30.4684 4.9571L27.2871 3.97726C27.0732 3.91329 26.8438 3.91543 26.6312 3.98337C26.4187 4.05131 26.2338 4.18161 26.1028 4.35583L23.9199 7.67394L11.9374 1.95076C10.9926 1.41942 9.93823 1.0923 8.8479 0.992268C7.75758 0.892236 6.65763 1.0217 5.62489 1.37162C4.59215 1.72153 3.65154 2.28346 2.86875 3.01815C2.08597 3.75284 1.47989 4.64256 1.09286 5.62517C0.933172 6.12129 0.985315 6.65791 1.23784 7.11719C1.49037 7.57647 1.92263 7.92087 2.43973 8.07478L10.3119 10.5244L11.1015 10.7693L12.5877 15.6463C12.6328 15.8148 12.723 15.9691 12.8492 16.094C12.9754 16.219 13.1334 16.3103 13.3075 16.3589L16.8837 17.4724C17.0714 17.5501 17.2777 17.5769 17.4802 17.5498C17.6827 17.5226 17.8734 17.4426 18.0317 17.3184C18.1899 17.1943 18.3095 17.0308 18.3773 16.8459C18.4452 16.6609 18.4587 16.4616 18.4163 16.2698L17.6732 12.7958L18.1841 12.9517L25.8705 15.3345C26.1189 15.4229 26.3831 15.4629 26.6478 15.4524C26.9125 15.4419 27.1723 15.381 27.4122 15.2732C27.6521 15.1654 27.8672 15.013 28.0451 14.8247C28.2229 14.6364 28.36 14.4161 28.4482 14.1765L31.1419 6.15963C31.2147 5.91457 31.1852 5.65192 31.0594 5.42742C30.9337 5.20291 30.7217 5.03421 30.4684 4.9571V4.9571Z" stroke="#A5A36C" stroke-width="1.2" stroke-linecap="round" stroke-linejoin="round"/>
<path d="M1 26.603H31.1884" stroke="#A5A36C" stroke-width="1.2" stroke-linecap="round" stroke-linejoin="round"/>
</svg>
