<svg width="37" height="28" viewBox="0 0 37 28" fill="none" xmlns="http://www.w3.org/2000/svg">
<path d="M3.71429 20.4409C5.21336 20.4409 6.42859 18.6928 6.42859 16.5364C6.42859 14.38 5.21336 12.6318 3.71429 12.6318C2.21523 12.6318 1 14.38 1 16.5364C1 18.6928 2.21523 20.4409 3.71429 20.4409Z" stroke="#A5A36C" stroke-width="1.2" stroke-linecap="round" stroke-linejoin="round"/>
<path d="M11.8571 8.72705C13.3562 8.72705 14.5714 6.97904 14.5714 4.82275C14.5714 2.66647 13.3562 0.918457 11.8571 0.918457C10.3581 0.918457 9.14282 2.66647 9.14282 4.82275C9.14282 6.97904 10.3581 8.72705 11.8571 8.72705Z" stroke="#A5A36C" stroke-width="1.2" stroke-linecap="round" stroke-linejoin="round"/>
<path d="M25.4284 8.72705C26.9275 8.72705 28.1427 6.97904 28.1427 4.82275C28.1427 2.66647 26.9275 0.918457 25.4284 0.918457C23.9293 0.918457 22.7141 2.66647 22.7141 4.82275C22.7141 6.97904 23.9293 8.72705 25.4284 8.72705Z" stroke="#A5A36C" stroke-width="1.2" stroke-linecap="round" stroke-linejoin="round"/>
<path d="M33.5712 20.4409C35.0703 20.4409 36.2855 18.6928 36.2855 16.5364C36.2855 14.38 35.0703 12.6318 33.5712 12.6318C32.0722 12.6318 30.8569 14.38 30.8569 16.5364C30.8569 18.6928 32.0722 20.4409 33.5712 20.4409Z" stroke="#A5A36C" stroke-width="1.2" stroke-linecap="round" stroke-linejoin="round"/>
<path d="M26.7865 21.7423C26.7865 25.3344 22.3893 26.9482 18.6436 26.9482C14.8979 26.9482 10.5007 25.3344 10.5007 21.7423C10.5007 18.1502 13.215 12.6318 18.6436 12.6318C24.0722 12.6318 26.7865 18.1502 26.7865 21.7423Z" stroke="#A5A36C" stroke-width="1.2" stroke-linecap="round" stroke-linejoin="round"/>
</svg>
