<svg width="17" height="14" viewBox="0 0 17 14" fill="none" xmlns="http://www.w3.org/2000/svg">
<path d="M2.18906 9.77471C2.84577 9.77471 3.37813 8.97617 3.37813 7.99112C3.37813 7.00606 2.84577 6.20752 2.18906 6.20752C1.53236 6.20752 1 7.00606 1 7.99112C1 8.97617 1.53236 9.77471 2.18906 9.77471Z" stroke="#787F3D" stroke-linecap="round" stroke-linejoin="round"/>
<path d="M5.7562 4.42413C6.41291 4.42413 6.94527 3.62558 6.94527 2.64053C6.94527 1.65548 6.41291 0.856934 5.7562 0.856934C5.0995 0.856934 4.56714 1.65548 4.56714 2.64053C4.56714 3.62558 5.0995 4.42413 5.7562 4.42413Z" stroke="#787F3D" stroke-linecap="round" stroke-linejoin="round"/>
<path d="M11.7015 4.42413C12.3582 4.42413 12.8906 3.62558 12.8906 2.64053C12.8906 1.65548 12.3582 0.856934 11.7015 0.856934C11.0448 0.856934 10.5125 1.65548 10.5125 2.64053C10.5125 3.62558 11.0448 4.42413 11.7015 4.42413Z" stroke="#787F3D" stroke-linecap="round" stroke-linejoin="round"/>
<path d="M15.2687 9.77471C15.9254 9.77471 16.4577 8.97617 16.4577 7.99112C16.4577 7.00606 15.9254 6.20752 15.2687 6.20752C14.612 6.20752 14.0796 7.00606 14.0796 7.99112C14.0796 8.97617 14.612 9.77471 15.2687 9.77471Z" stroke="#787F3D" stroke-linecap="round" stroke-linejoin="round"/>
<path d="M12.2963 10.3692C12.2963 12.0102 10.37 12.7474 8.72906 12.7474C7.08815 12.7474 5.16187 12.0102 5.16187 10.3692C5.16187 8.72834 6.35093 6.20752 8.72906 6.20752C11.1072 6.20752 12.2963 8.72834 12.2963 10.3692Z" stroke="#787F3D" stroke-linecap="round" stroke-linejoin="round"/>
</svg>
