<svg width="29" height="29" viewBox="0 0 29 29" fill="none" xmlns="http://www.w3.org/2000/svg">
<path d="M25.9064 6.18896H3.07554C1.92925 6.18896 1 7.11821 1 8.2645V14.4911C1 15.6374 1.92925 16.5666 3.07554 16.5666H25.9064C27.0527 16.5666 27.982 15.6374 27.982 14.4911V8.2645C27.982 7.11821 27.0527 6.18896 25.9064 6.18896Z" stroke="#A5A36C" stroke-width="1.2" stroke-linecap="round" stroke-linejoin="round"/>
<path d="M25.9066 16.567V25.9069C25.9066 26.4574 25.6879 26.9853 25.2987 27.3746C24.9094 27.7638 24.3815 27.9825 23.831 27.9825H5.15122C4.60075 27.9825 4.07283 27.7638 3.68359 27.3746C3.29436 26.9853 3.07568 26.4574 3.07568 25.9069V16.567" stroke="#A5A36C" stroke-width="1.2" stroke-linecap="round" stroke-linejoin="round"/>
<path d="M14.4917 6.18896V27.9821" stroke="#A5A36C" stroke-width="1.2" stroke-linecap="round" stroke-linejoin="round"/>
<path d="M20.7181 1L14.4915 6.18884L8.26489 1" stroke="#A5A36C" stroke-width="1.2" stroke-linecap="round" stroke-linejoin="round"/>
</svg>
