<svg width="15" height="15" viewBox="0 0 15 15" fill="none" xmlns="http://www.w3.org/2000/svg">
<path d="M13.1 3.50586H1.65362C1.07892 3.50586 0.613037 3.97174 0.613037 4.54644V7.66818C0.613037 8.24288 1.07892 8.70876 1.65362 8.70876H13.1C13.6747 8.70876 14.1406 8.24288 14.1406 7.66818V4.54644C14.1406 3.97174 13.6747 3.50586 13.1 3.50586Z" stroke="#787F3D" stroke-linecap="round" stroke-linejoin="round"/>
<path d="M13.0999 8.70898V13.3916C13.0999 13.6676 12.9903 13.9322 12.7952 14.1274C12.6 14.3225 12.3353 14.4322 12.0594 14.4322H2.69414C2.41817 14.4322 2.15349 14.3225 1.95834 14.1274C1.7632 13.9322 1.65356 13.6676 1.65356 13.3916V8.70898" stroke="#787F3D" stroke-linecap="round" stroke-linejoin="round"/>
<path d="M7.37695 3.50586V14.4319" stroke="#787F3D" stroke-linecap="round" stroke-linejoin="round"/>
<path d="M10.4984 0.904297L7.37662 3.50575L4.25488 0.904297" stroke="#787F3D" stroke-linecap="round" stroke-linejoin="round"/>
</svg>
