<svg width="15" height="15" viewBox="0 0 15 15" fill="none" xmlns="http://www.w3.org/2000/svg">
<path d="M3.00122 14H12.002" stroke="#787F3D" stroke-linecap="round" stroke-linejoin="round"/>
<path d="M13.932 3.89909C13.8303 3.47967 13.6214 3.09388 13.3256 2.77956C13.0299 2.46524 12.6575 2.23317 12.2451 2.10611C11.8327 1.97905 11.3943 1.96136 10.9729 2.05477C10.5516 2.14819 10.1618 2.3495 9.84166 2.63897C9.66693 2.15864 9.34864 1.7437 8.92998 1.45049C8.51132 1.15728 8.01257 1 7.50144 1C6.99032 1 6.49157 1.15728 6.07291 1.45049C5.65425 1.7437 5.33595 2.15864 5.16123 2.63897C4.84114 2.3495 4.45131 2.14819 4.02996 2.05477C3.60862 1.96136 3.17023 1.97905 2.75779 2.10611C2.34534 2.23317 1.973 2.46524 1.67727 2.77956C1.38154 3.09388 1.17257 3.47967 1.07086 3.89909C0.991399 4.22639 0.978616 4.56634 1.03327 4.89869C1.08793 5.23103 1.20891 5.54898 1.38902 5.8336C1.56912 6.11821 1.80465 6.36367 2.0816 6.55536C2.35854 6.74705 2.67123 6.88104 3.00104 6.94936V10.4997C3.00104 10.7649 3.1064 11.0193 3.29396 11.2069C3.48151 11.3944 3.73589 11.4998 4.00113 11.4998H11.0018C11.267 11.4998 11.5214 11.3944 11.7089 11.2069C11.8965 11.0193 12.0019 10.7649 12.0019 10.4997V6.94936C12.3317 6.88104 12.6443 6.74705 12.9213 6.55536C13.1982 6.36367 13.4338 6.11821 13.6139 5.8336C13.794 5.54898 13.915 5.23103 13.9696 4.89869C14.0243 4.56634 14.0115 4.22639 13.932 3.89909V3.89909Z" stroke="#787F3D" stroke-linecap="round" stroke-linejoin="round"/>
<path d="M3.00122 8.99951H12.002" stroke="#787F3D" stroke-linecap="round" stroke-linejoin="round"/>
</svg>
