<svg width="16" height="16" viewBox="0 0 16 16" fill="none" xmlns="http://www.w3.org/2000/svg">
<path d="M13.6259 3.64893H2.1795C1.6048 3.64893 1.13892 4.11481 1.13892 4.68951V13.5344C1.13892 14.1091 1.6048 14.575 2.1795 14.575H13.6259C14.2006 14.575 14.6665 14.1091 14.6665 13.5344V4.68951C14.6665 4.11481 14.2006 3.64893 13.6259 3.64893Z" stroke="#787F3D" stroke-linecap="round" stroke-linejoin="round"/>
<path d="M11.024 6.25049H4.78057C4.20587 6.25049 3.73999 6.71637 3.73999 7.29107V10.9331C3.73999 11.5078 4.20587 11.9737 4.78057 11.9737H11.024C11.5987 11.9737 12.0646 11.5078 12.0646 10.9331V7.29107C12.0646 6.71637 11.5987 6.25049 11.024 6.25049Z" stroke="#787F3D" stroke-linecap="round" stroke-linejoin="round"/>
<path d="M5.82153 1.04736L7.90269 3.64881L9.98385 1.04736" stroke="#787F3D" stroke-linecap="round" stroke-linejoin="round"/>
</svg>
