<svg width="19" height="19" viewBox="0 0 19 19" fill="none" xmlns="http://www.w3.org/2000/svg">
<path d="M9.50048 6.38511C7.78034 6.38511 6.3859 7.77956 6.3859 9.4997C6.3859 11.2198 7.78034 12.6143 9.50048 12.6143C11.2206 12.6143 12.6151 11.2198 12.6151 9.4997C12.6151 7.77956 11.2206 6.38511 9.50048 6.38511Z" fill="#787F3D"/>
<path fill-rule="evenodd" clip-rule="evenodd" d="M4.48795 0.952772C7.7924 0.583451 11.2086 0.583451 14.513 0.952772C16.3323 1.15611 17.7997 2.58956 18.0133 4.41523C18.4084 7.79336 18.4084 11.206 18.0133 14.5842C17.7997 16.4098 16.3323 17.8433 14.513 18.0466C11.2086 18.4159 7.79241 18.4159 4.48795 18.0466C2.66866 17.8433 1.20126 16.4098 0.987733 14.5842C0.592631 11.206 0.592631 7.79336 0.987733 4.41523C1.20126 2.58956 2.66866 1.15611 4.48795 0.952772ZM14.2921 3.7497C13.7629 3.7497 13.3338 4.17876 13.3338 4.70803C13.3338 5.2373 13.7629 5.66636 14.2921 5.66636C14.8214 5.66636 15.2505 5.2373 15.2505 4.70803C15.2505 4.17876 14.8214 3.7497 14.2921 3.7497ZM4.9484 9.4997C4.9484 6.98565 6.98643 4.94761 9.50048 4.94761C12.0145 4.94761 14.0526 6.98565 14.0526 9.4997C14.0526 12.0137 12.0145 14.0518 9.50048 14.0518C6.98643 14.0518 4.9484 12.0137 4.9484 9.4997Z" fill="#787F3D"/>
</svg>
