<svg width="30" height="31" viewBox="0 0 30 31" fill="none" xmlns="http://www.w3.org/2000/svg">
<path d="M8.86523 9.98925C11.3475 9.98925 13.3599 7.97694 13.3599 5.49462C13.3599 3.01231 11.3475 1 8.86523 1C6.38292 1 4.37061 3.01231 4.37061 5.49462C4.37061 7.97694 6.38292 9.98925 8.86523 9.98925Z" stroke="#A5A36C" stroke-width="1.2" stroke-linecap="round" stroke-linejoin="round"/>
<path d="M16.7312 17.8545C16.7312 15.7684 15.9025 13.7678 14.4274 12.2927C12.9523 10.8176 10.9517 9.98889 8.86559 9.98889C6.77951 9.98889 4.77886 10.8176 3.30378 12.2927C1.82869 13.7678 1 15.7684 1 17.8545V21.2255H4.37097L5.49462 30.2147H12.2366L13.3602 21.2255H16.7312V17.8545Z" stroke="#A5A36C" stroke-width="1.2" stroke-linecap="round" stroke-linejoin="round"/>
<path d="M24.3951 17.2489C25.9863 17.2489 27.2763 15.959 27.2763 14.3677C27.2763 12.7765 25.9863 11.4866 24.3951 11.4866C22.8039 11.4866 21.5139 12.7765 21.5139 14.3677C21.5139 15.959 22.8039 17.2489 24.3951 17.2489Z" stroke="#A5A36C" stroke-linecap="round" stroke-linejoin="round"/>
<path d="M29.4371 22.2919C29.4371 20.9547 28.9059 19.6722 27.9604 18.7267C27.0148 17.7811 25.7323 17.2499 24.3951 17.2499C23.0578 17.2499 21.7754 17.7811 20.8298 18.7267C19.8842 19.6722 19.353 20.9547 19.353 22.2919V24.4528H21.5139L22.2342 30.2152H26.556L27.2763 24.4528H29.4371V22.2919Z" stroke="#A5A36C" stroke-linecap="round" stroke-linejoin="round"/>
</svg>
