<svg width="15" height="15" viewBox="0 0 15 15" fill="none" xmlns="http://www.w3.org/2000/svg">
<path d="M14.1474 11.2441C14.1474 12.9605 11.1386 14.346 7.42661 14.346C3.71466 14.346 0.705811 12.9605 0.705811 11.2441" stroke="#787F3D" stroke-linecap="round" stroke-linejoin="round"/>
<path d="M10.0112 6.07414C10.0112 7.50102 7.94322 9.69303 7.42623 9.69303C6.90925 9.69303 4.84131 7.50102 4.84131 6.07414C4.84131 4.0062 7.42623 0.904297 7.42623 0.904297C7.42623 0.904297 10.0112 4.0062 10.0112 6.07414Z" stroke="#787F3D" stroke-linecap="round" stroke-linejoin="round"/>
<path d="M5.23446 4.40949C3.94165 3.93377 2.59355 3.62454 1.22266 3.48926C1.22266 3.48926 1.58455 7.5114 3.05278 8.96929C4.08675 10.0033 7.07492 10.0653 7.43681 9.70341" stroke="#787F3D" stroke-linecap="round" stroke-linejoin="round"/>
<path d="M9.61837 4.40949C10.9112 3.93377 12.2593 3.62454 13.6302 3.48926C13.6302 3.48926 13.2683 7.5114 11.8 8.96929C10.7661 10.0033 7.7779 10.0653 7.41602 9.70341" stroke="#787F3D" stroke-linecap="round" stroke-linejoin="round"/>
</svg>
