<svg width="17" height="17" viewBox="0 0 17 17" fill="none" xmlns="http://www.w3.org/2000/svg">
<path d="M16.2838 16.0001H15.7087C15.0986 16.0001 14.5135 15.7577 14.0821 15.3263C13.6507 14.8949 13.4083 14.3098 13.4083 13.6997C13.4083 14.3098 13.166 14.8949 12.7345 15.3263C12.3031 15.7577 11.718 16.0001 11.1079 16.0001C10.4978 16.0001 9.91272 15.7577 9.48131 15.3263C9.04991 14.8949 8.80755 14.3098 8.80755 13.6997C8.80755 14.3098 8.56519 14.8949 8.13378 15.3263C7.70237 15.7577 7.11726 16.0001 6.50716 16.0001C5.89706 16.0001 5.31195 15.7577 4.88055 15.3263C4.44914 14.8949 4.20678 14.3098 4.20678 13.6997C4.20678 14.3098 3.96442 14.8949 3.53301 15.3263C3.10161 15.7577 2.51649 16.0001 1.90639 16.0001H1.3313" stroke="#787F3D" stroke-linecap="round" stroke-linejoin="round"/>
<path d="M3.63184 3.34824C3.63184 2.73814 3.8742 2.15302 4.3056 1.72162C4.73701 1.29021 5.32212 1.04785 5.93222 1.04785C6.54232 1.04785 7.12743 1.29021 7.55884 1.72162C7.99024 2.15302 8.2326 2.73814 8.2326 3.34824V11.3996" stroke="#787F3D" stroke-linecap="round" stroke-linejoin="round"/>
<path d="M11.6829 1.04785C12.293 1.04785 12.8781 1.29021 13.3095 1.72162C13.7409 2.15302 13.9832 2.73814 13.9832 3.34824V11.3996" stroke="#787F3D" stroke-linecap="round" stroke-linejoin="round"/>
<path d="M8.23267 5.64844H13.9836" stroke="#787F3D" stroke-linecap="round" stroke-linejoin="round"/>
<path d="M8.23267 9.09912H13.9836" stroke="#787F3D" stroke-linecap="round" stroke-linejoin="round"/>
</svg>
