<svg width="31" height="31" viewBox="0 0 31 31" fill="none" xmlns="http://www.w3.org/2000/svg">
<path d="M29.6689 29.5737H28.5663C27.3965 29.5737 26.2747 29.109 25.4475 28.2819C24.6204 27.4547 24.1557 26.3329 24.1557 25.1631C24.1557 26.3329 23.691 27.4547 22.8638 28.2819C22.0367 29.109 20.9148 29.5737 19.7451 29.5737C18.5753 29.5737 17.4535 29.109 16.6263 28.2819C15.7992 27.4547 15.3345 26.3329 15.3345 25.1631C15.3345 26.3329 14.8698 27.4547 14.0426 28.2819C13.2155 29.109 12.0936 29.5737 10.9239 29.5737C9.7541 29.5737 8.63224 29.109 7.8051 28.2819C6.97795 27.4547 6.51326 26.3329 6.51326 25.1631C6.51326 26.3329 6.04857 27.4547 5.22142 28.2819C4.39427 29.109 3.27242 29.5737 2.10265 29.5737H1" stroke="#A5A36C" stroke-width="1.2" stroke-linecap="round" stroke-linejoin="round"/>
<path d="M5.41138 5.31588C5.41138 4.14611 5.87606 3.02426 6.70321 2.19711C7.53036 1.36996 8.65222 0.905273 9.82198 0.905273C10.9917 0.905273 12.1136 1.36996 12.9408 2.19711C13.7679 3.02426 14.2326 4.14611 14.2326 5.31588V20.753" stroke="#A5A36C" stroke-width="1.2" stroke-linecap="round" stroke-linejoin="round"/>
<path d="M20.8474 0.905273C22.0172 0.905273 23.139 1.36996 23.9662 2.19711C24.7933 3.02426 25.258 4.14611 25.258 5.31588V20.753" stroke="#A5A36C" stroke-width="1.2" stroke-linecap="round" stroke-linejoin="round"/>
<path d="M14.2322 9.7262H25.2587" stroke="#A5A36C" stroke-width="1.2" stroke-linecap="round" stroke-linejoin="round"/>
<path d="M14.2322 16.3423H25.2587" stroke="#A5A36C" stroke-width="1.2" stroke-linecap="round" stroke-linejoin="round"/>
</svg>
