<svg width="32" height="32" viewBox="0 0 32 32" fill="none" xmlns="http://www.w3.org/2000/svg">
<path d="M30.8462 23.9589C30.8462 27.77 24.1652 30.8464 15.9231 30.8464C7.68095 30.8464 1 27.77 1 23.9589" stroke="#A5A36C" stroke-width="1.2" stroke-linecap="round" stroke-linejoin="round"/>
<path d="M21.6624 12.4793C21.6624 15.6476 17.0707 20.5148 15.9228 20.5148C14.7748 20.5148 10.1831 15.6476 10.1831 12.4793C10.1831 7.88757 15.9228 1 15.9228 1C15.9228 1 21.6624 7.88757 21.6624 12.4793Z" stroke="#A5A36C" stroke-width="1.2" stroke-linecap="round" stroke-linejoin="round"/>
<path d="M11.0556 8.78245C8.18505 7.72614 5.19168 7.03952 2.14771 6.73914C2.14771 6.73914 2.95126 15.67 6.21137 18.9072C8.50723 21.203 15.1423 21.3408 15.9458 20.5372" stroke="#A5A36C" stroke-width="1.2" stroke-linecap="round" stroke-linejoin="round"/>
<path d="M20.7901 8.78245C23.6607 7.72614 26.654 7.03952 29.698 6.73914C29.698 6.73914 28.8945 15.67 25.6343 18.9072C23.3385 21.203 16.7035 21.3408 15.8999 20.5372" stroke="#A5A36C" stroke-width="1.2" stroke-linecap="round" stroke-linejoin="round"/>
</svg>
