<svg width="10" height="18" viewBox="0 0 10 18" fill="none" xmlns="http://www.w3.org/2000/svg">
<path d="M8.91374 14.4394C8.87894 14.3335 8.76157 14.2799 8.65643 14.317C8.28332 14.4485 7.89192 14.5223 7.49574 14.5356C7.27328 14.5599 7.04823 14.5327 6.83791 14.4563C6.6276 14.3798 6.43764 14.2561 6.28267 14.0947C6.1277 13.9332 6.01184 13.7384 5.94404 13.5251C5.87768 13.3164 5.85906 13.0955 5.8895 12.8788C5.89082 12.8693 5.89156 12.8598 5.89156 12.8503V7.65937H9.04194C9.1478 7.65937 9.23361 7.57355 9.23361 7.4677V5.34449C9.23361 5.23864 9.1478 5.15283 9.04194 5.15283H5.89156V1.06667C5.89156 0.960812 5.80575 0.875 5.69989 0.875H3.45186C3.42009 0.877123 3.39032 0.891258 3.36859 0.914535C3.34687 0.937813 3.33482 0.968486 3.33489 1.00033C3.28221 1.98941 2.94294 2.9418 2.35843 3.74143C1.79999 4.50538 1.04076 5.09836 0.166228 5.45529C0.0924385 5.48541 0.0429688 5.55647 0.0429688 5.63617V7.4677C0.0429688 7.57355 0.128781 7.65937 0.234635 7.65937H1.71399V13.1236C1.71399 14.9868 3.09259 17.6437 6.72707 17.5853C7.88823 17.5853 9.17634 17.1073 9.56768 16.6809C9.60787 16.6372 9.61543 16.5746 9.59687 16.5182L8.91374 14.4394Z" fill="#787F3D"/>
</svg>
