<svg width="33" height="27" viewBox="0 0 33 27" fill="none" xmlns="http://www.w3.org/2000/svg">
<path d="M16.6363 26.2426C18.3767 26.2426 19.7876 24.8317 19.7876 23.0912C19.7876 21.3507 18.3767 19.9398 16.6363 19.9398C14.8958 19.9398 13.4849 21.3507 13.4849 23.0912C13.4849 24.8317 14.8958 26.2426 16.6363 26.2426Z" stroke="#A5A36C" stroke-width="1.2" stroke-linecap="round" stroke-linejoin="round"/>
<path d="M10.6948 16.0186C11.4771 15.2155 12.4123 14.5772 13.4452 14.1414C14.4781 13.7056 15.5878 13.4811 16.7089 13.4811C17.83 13.4811 18.9398 13.7056 19.9727 14.1414C21.0056 14.5772 21.9408 15.2155 22.723 16.0186" stroke="#A5A36C" stroke-width="1.2" stroke-linecap="round" stroke-linejoin="round"/>
<path d="M5.47437 11.9537C6.93871 10.4808 8.67979 9.31196 10.5975 8.51436C12.5152 7.71676 14.5716 7.30615 16.6486 7.30615C18.7255 7.30615 20.782 7.71676 22.6997 8.51436C24.6173 9.31196 26.3584 10.4808 27.8228 11.9537" stroke="#A5A36C" stroke-width="1.2" stroke-linecap="round" stroke-linejoin="round"/>
<path d="M1 7.4793C3.05305 5.42518 5.49071 3.7957 8.17371 2.68396C10.8567 1.57222 13.7325 1 16.6367 1C19.5409 1 22.4166 1.57222 25.0996 2.68396C27.7826 3.7957 30.2203 5.42518 32.2733 7.4793" stroke="#A5A36C" stroke-width="1.2" stroke-linecap="round" stroke-linejoin="round"/>
</svg>
