<svg width="18" height="15" viewBox="0 0 18 15" fill="none" xmlns="http://www.w3.org/2000/svg">
<path d="M9.21693 13.6077C10.0895 13.6077 10.7969 12.9003 10.7969 12.0277C10.7969 11.1551 10.0895 10.4478 9.21693 10.4478C8.34434 10.4478 7.63696 11.1551 7.63696 12.0277C7.63696 12.9003 8.34434 13.6077 9.21693 13.6077Z" stroke="#787F3D" stroke-linecap="round" stroke-linejoin="round"/>
<path d="M6.23853 8.48216C6.63071 8.07953 7.09957 7.75953 7.61742 7.54103C8.13528 7.32253 8.69166 7.20996 9.25372 7.20996C9.81579 7.20996 10.3722 7.32253 10.89 7.54103C11.4079 7.75953 11.8767 8.07953 12.2689 8.48216" stroke="#787F3D" stroke-linecap="round" stroke-linejoin="round"/>
<path d="M3.62085 6.44384C4.35501 5.7054 5.22791 5.11939 6.18935 4.71951C7.15079 4.31963 8.1818 4.11377 9.22309 4.11377C10.2644 4.11377 11.2954 4.31963 12.2568 4.71951C13.2183 5.11939 14.0912 5.7054 14.8253 6.44384" stroke="#787F3D" stroke-linecap="round" stroke-linejoin="round"/>
<path d="M1.37793 4.20058C2.40724 3.17073 3.62937 2.35379 4.9745 1.79641C6.31964 1.23903 7.76141 0.952148 9.21745 0.952148C10.6735 0.952148 12.1153 1.23903 13.4604 1.79641C14.8055 2.35379 16.0277 3.17073 17.057 4.20058" stroke="#787F3D" stroke-linecap="round" stroke-linejoin="round"/>
</svg>
