<svg width="28" height="27" viewBox="0 0 28 27" fill="none" xmlns="http://www.w3.org/2000/svg">
<path d="M7 12.6997C10.3137 12.6997 13 10.1237 13 6.94604C13 3.76838 10.3137 1.19238 7 1.19238C3.68629 1.19238 1 3.76838 1 6.94604C1 10.1237 3.68629 12.6997 7 12.6997Z" stroke="#A5A36C" stroke-width="1.2" stroke-linecap="round" stroke-linejoin="round"/>
<path d="M21 12.6997C23.2091 12.6997 25 10.9824 25 8.86401C25 6.74562 23.2091 5.02832 21 5.02832C18.7909 5.02832 17 6.74562 17 8.86401C17 10.9824 18.7909 12.6997 21 12.6997Z" stroke="#A5A36C" stroke-width="1.2" stroke-linecap="round" stroke-linejoin="round"/>
<path d="M20 17.4951H9C7.89543 17.4951 7 18.3539 7 19.4132V24.2084C7 25.2677 7.89543 26.1265 9 26.1265H20C21.1046 26.1265 22 25.2677 22 24.2084V19.4132C22 18.3539 21.1046 17.4951 20 17.4951Z" stroke="#A5A36C" stroke-width="1.2" stroke-linecap="round" stroke-linejoin="round"/>
<path d="M27 19.4136V24.2085" stroke="#A5A36C" stroke-width="1.2" stroke-linecap="round" stroke-linejoin="round"/>
</svg>
