<svg width="21" height="15" viewBox="0 0 21 15" fill="none" xmlns="http://www.w3.org/2000/svg">
<path fill-rule="evenodd" clip-rule="evenodd" d="M5.65625 0.686594C8.85294 0.4365 12.0643 0.4365 15.261 0.686594L17.4083 0.854591C18.6044 0.948166 19.5828 1.84459 19.7806 3.02791C20.2753 5.98868 20.2753 9.01101 19.7806 11.9718C19.5828 13.1551 18.6044 14.0515 17.4083 14.1451L15.2609 14.3131C12.0643 14.5632 8.85293 14.5632 5.65625 14.3131L3.50891 14.1451C2.31284 14.0515 1.33436 13.1551 1.13665 11.9718C0.64195 9.01101 0.64195 5.98868 1.13665 3.02791C1.33436 1.84459 2.31284 0.948166 3.50891 0.854591L5.65625 0.686594ZM8.54191 9.86707V5.13263C8.54191 4.90915 8.7857 4.77112 8.97732 4.8861L12.9227 7.25332C13.1088 7.36498 13.1088 7.63471 12.9227 7.74637L8.97732 10.1136C8.7857 10.2286 8.54191 10.0905 8.54191 9.86707Z" fill="#787F3D"/>
</svg>
